<svg width="34" height="34" viewBox="0 0 34 34" fill="none" xmlns="http://www.w3.org/2000/svg">
<g clip-path="url(#clip0_21_1495)">
<path d="M32.9375 27.625H30.8125V12.75C31.0943 12.75 31.3645 12.6381 31.5638 12.4388C31.7631 12.2395 31.875 11.9693 31.875 11.6875C31.875 11.4057 31.7631 11.1355 31.5638 10.9362C31.3645 10.7369 31.0943 10.625 30.8125 10.625H24.4375V6.375C24.7193 6.375 24.9895 6.26306 25.1888 6.0638C25.3881 5.86454 25.5 5.59429 25.5 5.3125C25.5 5.03071 25.3881 4.76046 25.1888 4.5612C24.9895 4.36194 24.7193 4.25 24.4375 4.25H5.3125C5.03071 4.25 4.76046 4.36194 4.5612 4.5612C4.36194 4.76046 4.25 5.03071 4.25 5.3125C4.25 5.59429 4.36194 5.86454 4.5612 6.0638C4.76046 6.26306 5.03071 6.375 5.3125 6.375V27.625H3.1875C2.90571 27.625 2.63546 27.7369 2.4362 27.9362C2.23694 28.1355 2.125 28.4057 2.125 28.6875C2.125 28.9693 2.23694 29.2395 2.4362 29.4388C2.63546 29.6381 2.90571 29.75 3.1875 29.75H32.9375C33.2193 29.75 33.4895 29.6381 33.6888 29.4388C33.8881 29.2395 34 28.9693 34 28.6875C34 28.4057 33.8881 28.1355 33.6888 27.9362C33.4895 27.7369 33.2193 27.625 32.9375 27.625ZM10.625 9.5625H12.75C13.0318 9.5625 13.302 9.67444 13.5013 9.8737C13.7006 10.073 13.8125 10.3432 13.8125 10.625C13.8125 10.9068 13.7006 11.177 13.5013 11.3763C13.302 11.5756 13.0318 11.6875 12.75 11.6875H10.625C10.3432 11.6875 10.073 11.5756 9.8737 11.3763C9.67444 11.177 9.5625 10.9068 9.5625 10.625C9.5625 10.3432 9.67444 10.073 9.8737 9.8737C10.073 9.67444 10.3432 9.5625 10.625 9.5625ZM9.5625 15.9375C9.5625 15.6557 9.67444 15.3855 9.8737 15.1862C10.073 14.9869 10.3432 14.875 10.625 14.875H12.75C13.0318 14.875 13.302 14.9869 13.5013 15.1862C13.7006 15.3855 13.8125 15.6557 13.8125 15.9375C13.8125 16.2193 13.7006 16.4895 13.5013 16.6888C13.302 16.8881 13.0318 17 12.75 17H10.625C10.3432 17 10.073 16.8881 9.8737 16.6888C9.67444 16.4895 9.5625 16.2193 9.5625 15.9375ZM18.0625 27.625H11.6875V21.25H18.0625V27.625ZM19.125 17H17C16.7182 17 16.448 16.8881 16.2487 16.6888C16.0494 16.4895 15.9375 16.2193 15.9375 15.9375C15.9375 15.6557 16.0494 15.3855 16.2487 15.1862C16.448 14.9869 16.7182 14.875 17 14.875H19.125C19.4068 14.875 19.677 14.9869 19.8763 15.1862C20.0756 15.3855 20.1875 15.6557 20.1875 15.9375C20.1875 16.2193 20.0756 16.4895 19.8763 16.6888C19.677 16.8881 19.4068 17 19.125 17ZM19.125 11.6875H17C16.7182 11.6875 16.448 11.5756 16.2487 11.3763C16.0494 11.177 15.9375 10.9068 15.9375 10.625C15.9375 10.3432 16.0494 10.073 16.2487 9.8737C16.448 9.67444 16.7182 9.5625 17 9.5625H19.125C19.4068 9.5625 19.677 9.67444 19.8763 9.8737C20.0756 10.073 20.1875 10.3432 20.1875 10.625C20.1875 10.9068 20.0756 11.177 19.8763 11.3763C19.677 11.5756 19.4068 11.6875 19.125 11.6875ZM28.6875 27.625H24.4375V12.75H28.6875V27.625Z" fill="url(#paint0_linear_21_1495)"/>
</g>
<defs>
<linearGradient id="paint0_linear_21_1495" x1="18.0625" y1="4.25" x2="18.0625" y2="29.75" gradientUnits="userSpaceOnUse">
<stop stop-color="white"/>
<stop offset="1" stop-color="white" stop-opacity="0.3"/>
</linearGradient>
<clipPath id="clip0_21_1495">
<rect width="34" height="34" fill="white"/>
</clipPath>
</defs>
</svg>
