<svg width="34" height="34" viewBox="0 0 34 34" fill="none" xmlns="http://www.w3.org/2000/svg">
<g clip-path="url(#clip0_21_1506)">
<path d="M30.8125 17.0002C30.8125 17.0679 30.8125 17.133 30.8125 17.2021C30.7673 19.096 30.0648 21.2502 27.0938 21.2502C24.0205 21.2502 23.375 18.9392 23.375 17.0002V11.6877C23.3753 11.542 23.3457 11.3979 23.2879 11.2641C23.2302 11.1304 23.1456 11.01 23.0393 10.9104C22.9331 10.8107 22.8075 10.734 22.6704 10.6849C22.5332 10.6359 22.3874 10.6155 22.2421 10.6252C21.9684 10.6487 21.7138 10.7751 21.5297 10.979C21.3456 11.1828 21.2456 11.4489 21.25 11.7235V12.2548C20.2908 11.3951 19.0937 10.8462 17.8164 10.6803C16.5391 10.5143 15.2415 10.7392 14.0946 11.3253C12.9476 11.9113 12.005 12.8311 11.3911 13.9634C10.7771 15.0956 10.5205 16.3873 10.6551 17.6683C10.7897 18.9493 11.3092 20.1595 12.1451 21.1394C12.981 22.1193 14.0941 22.8231 15.3379 23.1579C16.5816 23.4928 17.8976 23.4431 19.1125 23.0153C20.3275 22.5875 21.3843 21.8017 22.1438 20.7614C22.2766 20.9937 22.4267 21.2157 22.5927 21.4255C23.3059 22.3127 24.6646 23.3752 27.0938 23.3752C27.504 23.3766 27.9136 23.3432 28.3183 23.2756C28.4183 23.2589 28.521 23.2712 28.6143 23.311C28.7076 23.3509 28.7875 23.4166 28.8446 23.5004C28.9018 23.5842 28.9337 23.6826 28.9367 23.7839C28.9397 23.8853 28.9136 23.9854 28.8615 24.0725C27.6127 26.1671 25.832 27.894 23.6999 29.0778C21.5679 30.2616 19.1606 30.8602 16.7224 30.8127C9.44695 30.6666 3.47969 24.8175 3.19812 17.546C3.12611 15.711 3.42077 13.8799 4.06486 12.1601C4.70896 10.4402 5.68956 8.8661 6.94931 7.52976C8.20905 6.19343 9.72264 5.12172 11.4015 4.37735C13.0804 3.63298 14.8909 3.23089 16.727 3.19459C18.5632 3.1583 20.3881 3.48853 22.0951 4.16597C23.8021 4.84341 25.3568 5.85446 26.6684 7.13997C27.98 8.42548 29.022 9.95963 29.7336 11.6527C30.4452 13.3457 30.8119 15.1637 30.8125 17.0002ZM12.75 17.0002C12.75 17.8408 12.9993 18.6625 13.4663 19.3614C13.9333 20.0603 14.597 20.605 15.3736 20.9267C16.1502 21.2483 17.0047 21.3325 17.8291 21.1685C18.6536 21.0045 19.4108 20.5998 20.0052 20.0054C20.5996 19.411 21.0044 18.6537 21.1683 17.8293C21.3323 17.0049 21.2482 16.1504 20.9265 15.3738C20.6048 14.5972 20.0601 13.9334 19.3612 13.4664C18.6623 12.9994 17.8406 12.7502 17 12.7502C15.8728 12.7502 14.7918 13.198 13.9948 13.995C13.1978 14.792 12.75 15.873 12.75 17.0002Z" fill="url(#paint0_linear_21_1506)"/>
</g>
<defs>
<linearGradient id="paint0_linear_21_1506" x1="17" y1="3.19189" x2="17" y2="30.8153" gradientUnits="userSpaceOnUse">
<stop stop-color="white"/>
<stop offset="1" stop-color="white" stop-opacity="0.3"/>
</linearGradient>
<clipPath id="clip0_21_1506">
<rect width="34" height="34" fill="white"/>
</clipPath>
</defs>
</svg>
