<svg width="34" height="34" viewBox="0 0 34 34" fill="none" xmlns="http://www.w3.org/2000/svg">
<g clip-path="url(#clip0_21_1502)">
<path d="M17 2.125C13.9014 2.12852 10.9306 3.361 8.73957 5.55207C6.5485 7.74314 5.31602 10.7139 5.3125 13.8125C5.3125 23.8133 15.9375 31.3663 16.3904 31.6824C16.569 31.8076 16.7819 31.8747 17 31.8747C17.2181 31.8747 17.431 31.8076 17.6096 31.6824C18.0625 31.3663 28.6875 23.8133 28.6875 13.8125C28.684 10.7139 27.4515 7.74314 25.2604 5.55207C23.0694 3.361 20.0986 2.12852 17 2.125ZM17 9.5625C17.8406 9.5625 18.6623 9.81176 19.3612 10.2788C20.0601 10.7458 20.6048 11.4095 20.9265 12.1861C21.2482 12.9627 21.3323 13.8172 21.1683 14.6416C21.0044 15.4661 20.5996 16.2233 20.0052 16.8177C19.4108 17.4121 18.6536 17.8169 17.8291 17.9808C17.0047 18.1448 16.1502 18.0607 15.3736 17.739C14.597 17.4173 13.9333 16.8726 13.4663 16.1737C12.9993 15.4748 12.75 14.6531 12.75 13.8125C12.75 12.6853 13.1978 11.6043 13.9948 10.8073C14.7918 10.0103 15.8728 9.5625 17 9.5625Z" fill="url(#paint0_linear_21_1502)"/>
</g>
<defs>
<linearGradient id="paint0_linear_21_1502" x1="17" y1="2.125" x2="17" y2="31.8747" gradientUnits="userSpaceOnUse">
<stop stop-color="white"/>
<stop offset="1" stop-color="white" stop-opacity="0.3"/>
</linearGradient>
<clipPath id="clip0_21_1502">
<rect width="34" height="34" fill="white"/>
</clipPath>
</defs>
</svg>
