<svg width="34" height="34" viewBox="0 0 34 34" fill="none" xmlns="http://www.w3.org/2000/svg">
<g clip-path="url(#clip0_21_1514)">
<path d="M19.1609 6.1003C19.1969 5.96546 19.2592 5.83904 19.3442 5.72828C19.4291 5.61751 19.535 5.52457 19.6559 5.45476C19.7768 5.38495 19.9102 5.33965 20.0486 5.32143C20.187 5.30321 20.3276 5.31243 20.4624 5.34858C22.4321 5.8625 24.2292 6.89218 25.6686 8.3316C27.108 9.77101 28.1377 11.5681 28.6517 13.5378C28.6878 13.6726 28.697 13.8132 28.6788 13.9516C28.6606 14.09 28.6153 14.2235 28.5455 14.3443C28.4757 14.4652 28.3827 14.5711 28.272 14.6561C28.1612 14.741 28.0348 14.8033 27.8999 14.8394C27.8102 14.8629 27.7178 14.875 27.625 14.8752C27.3911 14.8753 27.1636 14.7981 26.978 14.6557C26.7923 14.5133 26.6589 14.3136 26.5984 14.0876C26.1794 12.4795 25.3392 11.0121 24.1642 9.8369C22.9892 8.66168 21.522 7.82111 19.9139 7.40186C19.779 7.36594 19.6524 7.30376 19.5415 7.21888C19.4306 7.134 19.3375 7.02809 19.2676 6.9072C19.1976 6.78632 19.1522 6.65283 19.1339 6.51437C19.1156 6.37591 19.1248 6.23521 19.1609 6.1003ZM18.8514 11.6519C20.6829 12.1406 21.8596 13.3187 22.3484 15.1501C22.4089 15.3761 22.5423 15.5758 22.728 15.7182C22.9136 15.8606 23.1411 15.9378 23.375 15.9377C23.4678 15.9375 23.5602 15.9254 23.6499 15.9019C23.7848 15.8658 23.9112 15.8035 24.022 15.7186C24.1327 15.6336 24.2257 15.5277 24.2955 15.4068C24.3653 15.286 24.4106 15.1525 24.4288 15.0141C24.447 14.8757 24.4378 14.7351 24.4017 14.6003C23.7217 12.0556 21.9446 10.2786 19.3999 9.59858C19.1277 9.52584 18.8376 9.56425 18.5937 9.70535C18.3497 9.84645 18.1718 10.0787 18.099 10.351C18.0263 10.6232 18.0647 10.9133 18.2058 11.1572C18.3469 11.4012 18.5791 11.5791 18.8514 11.6519ZM28.471 22.1082L22.2142 19.3045L22.197 19.2965C21.8722 19.1576 21.5178 19.1019 21.166 19.1343C20.8142 19.1668 20.4761 19.2865 20.1822 19.4825C20.1476 19.5053 20.1143 19.5302 20.0826 19.5569L16.8499 22.3127C14.802 21.318 12.6876 19.2195 11.6928 17.1981L14.4527 13.9163C14.4792 13.8831 14.5045 13.8499 14.5284 13.814C14.7202 13.5209 14.8366 13.1849 14.8672 12.836C14.8977 12.487 14.8416 12.1359 14.7037 11.8139V11.798L11.892 5.53053C11.7097 5.10987 11.3963 4.75944 10.9985 4.53157C10.6006 4.30369 10.1398 4.21059 9.6847 4.26616C7.88505 4.50297 6.23314 5.38679 5.0375 6.75253C3.84186 8.11828 3.18426 9.87256 3.18751 11.6877C3.18751 22.233 11.7672 30.8127 22.3125 30.8127C24.1277 30.816 25.882 30.1584 27.2477 28.9627C28.6134 27.7671 29.4973 26.1152 29.7341 24.3155C29.7897 23.8606 29.6968 23.3999 29.4692 23.0021C29.2416 22.6043 28.8914 22.2907 28.471 22.1082Z" fill="url(#paint0_linear_21_1514)"/>
</g>
<defs>
<linearGradient id="paint0_linear_21_1514" x1="16.4687" y1="4.25049" x2="16.4687" y2="30.8127" gradientUnits="userSpaceOnUse">
<stop stop-color="white"/>
<stop offset="1" stop-color="white" stop-opacity="0.3"/>
</linearGradient>
<clipPath id="clip0_21_1514">
<rect width="34" height="34" fill="white"/>
</clipPath>
</defs>
</svg>
